<svg width="1024" height="1024" viewBox="0 0 1024 1024" fill="none" xmlns="http://www.w3.org/2000/svg">
<path d="M1024 819.2H819.2V1024H1024V819.2Z" fill="#935B9E"/>
<path d="M409.6 614.4H204.8V819.2H409.6V614.4Z" fill="#8FBE54"/>
<path d="M819.2 409.6V614.4H614.4V819.2H409.6V1024H819.2V819.2H1024V409.6H819.2Z" fill="#36B6D4"/>
<path d="M614.4 409.6H409.6V819.2H614.4V614.4H819.2V409.6H614.4Z" fill="#FACF53"/>
<path d="M614.4 0V204.8H819.2V409.6H1024V0H614.4Z" fill="#D94759"/>
<path d="M409.6 204.8V0H0V1024H409.6V819.2H204.8V614.4H409.6V409.6H204.8V204.8H409.6Z" fill="#4B4B99"/>
<path d="M614.4 204.8V0H409.6V204.8H204.8V409.6H819.2V204.8H614.4Z" fill="#E4803E"/>
</svg>
